<svg id="svg" version="1.1" xmlns="http://www.w3.org/2000/svg" xmlns:xlink="http://www.w3.org/1999/xlink" width="400" height="400" viewBox="0, 0, 400,400"><g id="svgg"><path id="path0" d="M229.661 122.793 C 226.326 124.632,206.413 143.718,197.020 154.079 C 190.229 161.570,189.579 161.567,181.042 153.999 C 177.939 151.249,173.781 147.649,171.802 145.999 C 165.446 140.701,160.322 136.189,155.200 131.379 C 147.096 123.769,142.280 122.694,137.917 127.523 C 135.253 130.472,135.283 130.153,134.965 159.200 C 134.349 215.404,134.683 218.611,141.027 217.421 C 145.859 216.515,146.242 214.716,146.008 194.000 C 145.718 168.209,145.764 144.730,146.108 143.500 C 146.568 141.853,147.197 142.099,151.737 145.700 C 154.025 147.515,157.405 150.181,159.248 151.625 C 181.090 168.733,179.409 167.467,182.400 169.071 C 189.079 172.652,195.904 171.778,202.203 166.534 C 203.524 165.433,209.619 159.275,215.747 152.848 C 221.875 146.421,227.094 141.231,227.345 141.314 C 227.826 141.474,227.935 142.004,228.923 149.000 C 229.500 153.078,229.722 155.734,230.811 171.600 C 232.047 189.600,234.790 201.562,238.967 207.169 C 239.805 208.294,239.943 208.815,239.739 210.093 C 239.307 212.795,240.832 214.400,243.832 214.400 C 246.951 214.400,252.240 210.506,260.400 202.202 C 268.807 193.647,268.749 193.664,275.293 197.617 C 279.881 200.389,285.515 203.123,291.695 205.578 C 297.123 207.734,299.328 209.193,300.707 211.543 L 301.796 213.400 301.676 220.800 C 301.480 232.924,304.077 240.021,308.756 240.143 C 310.419 240.187,312.800 238.528,312.800 237.325 C 312.800 236.554,313.635 236.677,316.120 237.815 C 323.020 240.974,340.559 244.024,351.600 243.985 C 369.578 243.922,372.457 232.599,361.917 203.400 C 358.397 193.646,357.513 192.563,354.274 194.039 C 353.235 194.512,351.903 196.866,352.205 197.693 C 352.307 197.972,352.563 199.370,352.774 200.800 C 353.131 203.217,354.351 210.356,355.201 215.000 C 357.777 229.072,357.905 230.582,356.589 231.444 C 355.494 232.161,344.318 232.068,331.200 231.231 C 328.010 231.027,323.411 230.732,320.979 230.574 C 317.842 230.370,316.302 230.424,315.673 230.761 C 314.338 231.475,314.224 230.671,314.780 224.500 C 315.411 217.500,315.419 174.963,314.791 163.400 C 314.150 151.608,312.504 147.948,308.108 148.551 C 305.244 148.943,304.293 149.690,280.756 170.028 C 271.896 177.684,268.145 180.768,260.600 186.600 C 256.640 189.660,252.483 193.028,251.361 194.082 C 248.560 196.717,248.463 196.601,247.619 189.600 C 247.367 187.510,246.998 184.450,246.799 182.800 C 246.454 179.944,246.173 176.796,245.207 165.000 C 244.163 152.254,243.555 147.426,241.148 132.800 C 239.514 122.870,235.642 119.496,229.661 122.793 M97.943 129.533 C 92.857 132.088,91.181 149.384,91.193 199.200 C 91.202 236.181,92.117 243.481,97.012 245.647 C 100.540 247.207,104.579 244.911,105.652 240.735 C 106.373 237.927,106.394 214.690,105.692 197.000 C 105.412 189.960,105.016 174.300,104.811 162.200 C 104.424 139.326,104.256 135.541,103.526 133.200 C 102.461 129.786,100.285 128.357,97.943 129.533 M300.800 180.643 C 300.800 193.662,300.758 194.470,300.100 194.217 C 294.788 192.182,280.023 185.288,280.101 184.879 C 280.229 184.206,299.640 166.855,300.300 166.824 C 300.691 166.805,300.800 169.823,300.800 180.643 M48.832 193.100 C 42.952 199.954,34.314 223.564,34.234 233.000 C 34.120 246.406,46.302 249.679,78.200 244.815 C 81.782 244.268,82.961 243.434,83.119 241.334 C 83.370 237.999,81.794 237.395,71.800 236.996 C 45.726 235.956,45.600 235.938,45.600 233.411 C 45.600 232.457,47.923 222.967,49.602 217.063 C 50.050 215.488,50.591 213.570,50.804 212.800 C 52.674 206.055,54.560 199.488,55.055 198.007 C 56.873 192.564,52.351 188.998,48.832 193.100 " stroke="none" fill="#f9fafb" fill-rule="evenodd"></path><path id="path1" d="M0.000 200.000 L 0.000 400.000 200.000 400.000 L 400.000 400.000 400.000 200.000 L 400.000 0.000 200.000 0.000 L 0.000 0.000 0.000 200.000 M237.366 122.147 C 239.047 123.429,240.907 127.197,241.538 130.600 C 242.340 134.921,243.949 145.697,244.554 150.800 C 245.188 156.140,245.180 156.050,246.396 170.521 C 247.442 182.952,248.375 191.362,249.046 194.400 C 249.265 195.390,249.274 195.392,249.936 194.600 C 250.934 193.408,254.668 190.309,261.615 184.910 C 267.881 180.041,274.316 174.647,291.839 159.578 C 308.289 145.431,310.307 144.708,313.848 151.694 C 315.963 155.868,317.015 206.145,315.406 226.200 L 315.118 229.800 319.859 229.890 C 322.466 229.939,327.120 230.157,330.200 230.374 C 343.730 231.326,353.962 231.727,355.261 231.356 C 357.201 230.803,357.175 230.015,354.783 216.900 C 354.572 215.745,354.220 213.810,354.000 212.600 C 353.780 211.390,353.410 209.365,353.178 208.100 C 351.258 197.631,351.192 195.712,352.698 194.285 C 355.182 191.932,358.295 192.472,359.632 195.487 C 364.134 205.643,367.757 218.093,368.765 226.873 C 369.914 236.871,365.197 243.340,355.978 244.409 C 345.694 245.600,318.444 241.317,315.020 237.971 C 314.311 237.278,313.403 237.627,312.600 238.900 C 310.507 242.219,306.338 241.546,304.012 237.513 C 301.492 233.143,301.003 230.651,300.969 222.000 C 300.930 212.065,301.040 212.824,299.355 210.856 C 297.711 208.935,296.412 208.225,288.631 204.996 C 282.710 202.540,279.517 200.940,275.000 198.168 C 268.906 194.429,269.207 194.324,260.000 203.366 C 252.380 210.849,249.777 213.015,246.751 214.388 C 242.461 216.334,238.396 214.228,238.919 210.330 C 239.090 209.053,238.884 208.372,237.762 206.510 C 233.187 198.911,231.192 188.941,229.795 166.689 C 228.916 152.668,227.963 144.010,227.163 142.759 C 226.758 142.127,227.402 141.497,213.858 155.800 C 200.528 169.878,197.731 171.802,190.600 171.797 C 183.707 171.792,180.407 169.621,149.400 144.696 C 147.070 142.823,146.992 142.793,146.740 143.683 C 146.319 145.168,146.363 165.906,146.833 187.200 C 147.449 215.100,146.783 218.092,139.959 218.092 C 134.404 218.092,133.650 213.106,134.202 180.000 C 134.365 170.210,134.521 155.360,134.549 147.000 C 134.607 129.781,134.699 129.230,138.025 126.225 C 142.844 121.871,147.737 123.269,156.417 131.479 C 159.394 134.296,165.873 140.048,170.815 144.262 C 175.757 148.475,181.330 153.288,183.200 154.956 C 189.976 160.999,189.820 161.046,199.879 150.000 C 205.316 144.029,223.220 126.604,227.020 123.584 C 228.389 122.496,229.750 121.742,231.600 121.046 C 232.995 120.521,235.983 121.092,237.366 122.147 M102.092 129.335 C 104.672 131.726,105.198 134.931,105.210 148.331 C 105.220 158.969,105.855 183.190,106.832 210.200 C 107.358 224.749,107.120 238.493,106.295 241.129 C 104.143 248.007,96.192 248.893,93.105 242.600 C 89.104 234.446,89.704 146.790,93.848 134.069 C 95.547 128.851,99.266 126.716,102.092 129.335 M292.301 174.500 C 288.050 178.295,283.684 182.156,282.600 183.081 C 281.516 184.005,280.712 184.836,280.814 184.927 C 281.279 185.341,299.362 193.200,299.850 193.200 C 300.305 193.200,300.400 190.991,300.400 180.400 C 300.400 173.360,300.317 167.600,300.216 167.600 C 300.114 167.600,296.553 170.705,292.301 174.500 M52.859 190.567 C 55.696 191.752,57.132 194.982,56.022 197.681 C 55.815 198.187,55.251 199.950,54.769 201.600 C 54.288 203.250,53.662 205.329,53.379 206.220 C 53.096 207.111,52.408 209.541,51.851 211.620 C 51.294 213.699,49.931 218.724,48.821 222.788 C 46.516 231.229,46.080 233.733,46.769 234.563 C 47.340 235.251,49.517 235.413,66.400 236.026 C 82.586 236.614,83.433 236.850,83.890 240.902 C 84.324 244.749,82.741 245.320,67.000 246.990 C 45.036 249.320,34.147 245.411,33.274 234.884 C 32.462 225.090,44.218 194.382,50.169 190.753 C 51.635 189.860,51.233 189.888,52.859 190.567 " stroke="none" fill="#044baa" fill-rule="evenodd"></path><path id="path2" d="M143.300 124.276 C 143.685 124.376,144.315 124.376,144.700 124.276 C 145.085 124.175,144.770 124.093,144.000 124.093 C 143.230 124.093,142.915 124.175,143.300 124.276 M137.775 126.900 L 136.600 128.200 137.900 127.025 C 139.112 125.930,139.384 125.600,139.075 125.600 C 139.006 125.600,138.421 126.185,137.775 126.900 M153.800 129.600 C 154.659 130.480,155.452 131.200,155.562 131.200 C 155.672 131.200,155.059 130.480,154.200 129.600 C 153.341 128.720,152.548 128.000,152.438 128.000 C 152.328 128.000,152.941 128.720,153.800 129.600 M218.987 131.300 L 216.600 133.800 219.100 131.413 C 220.475 130.099,221.600 128.974,221.600 128.913 C 221.600 128.617,221.205 128.978,218.987 131.300 M211.381 138.500 L 209.800 140.200 211.500 138.619 C 213.081 137.148,213.384 136.800,213.081 136.800 C 213.016 136.800,212.251 137.565,211.381 138.500 M203.787 146.100 L 201.400 148.600 203.900 146.213 C 205.275 144.899,206.400 143.774,206.400 143.713 C 206.400 143.417,206.005 143.778,203.787 146.100 M222.786 145.900 L 220.600 148.200 222.900 146.014 C 224.165 144.811,225.200 143.776,225.200 143.714 C 225.200 143.417,224.818 143.763,222.786 145.900 M146.114 147.800 C 146.117 148.900,146.195 149.303,146.287 148.695 C 146.379 148.086,146.377 147.186,146.282 146.695 C 146.187 146.203,146.111 146.700,146.114 147.800 M198.575 151.700 L 197.400 153.000 198.700 151.825 C 199.415 151.179,200.000 150.594,200.000 150.525 C 200.000 150.216,199.670 150.488,198.575 151.700 M215.781 153.300 L 214.200 155.000 215.900 153.419 C 217.481 151.948,217.784 151.600,217.481 151.600 C 217.416 151.600,216.651 152.365,215.781 153.300 M134.963 158.400 C 134.963 162.030,135.023 163.515,135.098 161.700 C 135.172 159.885,135.172 156.915,135.098 155.100 C 135.023 153.285,134.963 154.770,134.963 158.400 M91.709 154.800 C 91.709 155.790,91.787 156.195,91.882 155.700 C 91.978 155.205,91.978 154.395,91.882 153.900 C 91.787 153.405,91.709 153.810,91.709 154.800 M314.909 158.000 C 314.909 158.990,314.987 159.395,315.082 158.900 C 315.178 158.405,315.178 157.595,315.082 157.100 C 314.987 156.605,314.909 157.010,314.909 158.000 M104.953 161.800 C 104.953 164.440,105.018 165.468,105.097 164.084 C 105.175 162.701,105.174 160.541,105.095 159.284 C 105.016 158.028,104.952 159.160,104.953 161.800 M91.314 160.600 C 91.317 161.700,91.395 162.103,91.487 161.495 C 91.579 160.886,91.577 159.986,91.482 159.495 C 91.387 159.003,91.311 159.500,91.314 160.600 M206.189 163.300 L 203.400 166.200 206.300 163.411 C 207.895 161.877,209.200 160.572,209.200 160.511 C 209.200 160.217,208.780 160.606,206.189 163.300 M229.693 163.200 C 229.693 163.970,229.775 164.285,229.876 163.900 C 229.976 163.515,229.976 162.885,229.876 162.500 C 229.775 162.115,229.693 162.430,229.693 163.200 M146.150 169.800 C 146.151 172.220,146.216 173.158,146.296 171.885 C 146.376 170.612,146.375 168.632,146.294 167.485 C 146.214 166.338,146.149 167.380,146.150 169.800 M230.093 167.600 C 230.093 168.370,230.175 168.685,230.276 168.300 C 230.376 167.915,230.376 167.285,230.276 166.900 C 230.175 166.515,230.093 166.830,230.093 167.600 M300.579 180.400 C 300.579 187.770,300.633 190.785,300.699 187.100 C 300.765 183.415,300.765 177.385,300.699 173.700 C 300.633 170.015,300.579 173.030,300.579 180.400 M315.331 171.800 C 315.333 173.340,315.405 173.921,315.492 173.091 C 315.579 172.261,315.577 171.001,315.489 170.291 C 315.400 169.581,315.329 170.260,315.331 171.800 M105.337 174.200 C 105.339 175.960,105.409 176.630,105.493 175.689 C 105.578 174.749,105.577 173.309,105.491 172.489 C 105.405 171.670,105.336 172.440,105.337 174.200 M134.524 173.400 C 134.526 174.720,134.601 175.212,134.690 174.493 C 134.779 173.774,134.777 172.694,134.686 172.093 C 134.595 171.492,134.522 172.080,134.524 173.400 M90.937 176.200 C 90.939 177.960,91.009 178.630,91.093 177.689 C 91.178 176.749,91.177 175.309,91.091 174.489 C 91.005 173.670,90.936 174.440,90.937 176.200 M315.753 183.800 C 315.753 186.440,315.818 187.468,315.897 186.084 C 315.975 184.701,315.974 182.541,315.895 181.284 C 315.816 180.028,315.752 181.160,315.753 183.800 M90.565 190.800 C 90.565 194.650,90.625 196.225,90.698 194.300 C 90.771 192.375,90.771 189.225,90.698 187.300 C 90.625 185.375,90.565 186.950,90.565 190.800 M105.724 191.800 C 105.726 193.120,105.801 193.612,105.890 192.893 C 105.979 192.174,105.977 191.094,105.886 190.493 C 105.795 189.892,105.722 190.480,105.724 191.800 M146.542 194.200 C 146.541 196.180,146.608 197.040,146.692 196.112 C 146.776 195.184,146.777 193.564,146.695 192.512 C 146.612 191.460,146.543 192.220,146.542 194.200 M250.306 194.211 C 249.484 194.975,248.954 195.600,249.127 195.600 C 249.301 195.600,250.054 194.970,250.800 194.200 C 252.541 192.403,252.243 192.410,250.306 194.211 M106.124 199.000 C 106.126 200.320,106.201 200.812,106.290 200.093 C 106.379 199.374,106.377 198.294,106.286 197.693 C 106.195 197.092,106.122 197.680,106.124 199.000 M258.191 204.900 L 255.000 208.200 258.300 205.009 C 261.365 202.046,261.782 201.600,261.491 201.600 C 261.430 201.600,259.945 203.085,258.191 204.900 M134.520 204.800 C 134.520 206.010,134.595 206.505,134.687 205.900 C 134.778 205.295,134.778 204.305,134.687 203.700 C 134.595 203.095,134.520 203.590,134.520 204.800 M90.560 210.200 C 90.561 213.500,90.622 214.797,90.698 213.082 C 90.773 211.367,90.772 208.667,90.697 207.082 C 90.621 205.497,90.559 206.900,90.560 210.200 M315.751 210.000 C 315.751 212.530,315.816 213.565,315.896 212.300 C 315.975 211.035,315.975 208.965,315.896 207.700 C 315.816 206.435,315.751 207.470,315.751 210.000 M134.901 211.000 C 134.905 211.880,134.987 212.193,135.083 211.695 C 135.179 211.198,135.175 210.478,135.075 210.095 C 134.975 209.713,134.896 210.120,134.901 211.000 M106.528 214.800 C 106.528 216.230,106.601 216.815,106.689 216.100 C 106.778 215.385,106.778 214.215,106.689 213.500 C 106.601 212.785,106.528 213.370,106.528 214.800 M139.300 217.876 C 139.685 217.976,140.315 217.976,140.700 217.876 C 141.085 217.775,140.770 217.693,140.000 217.693 C 139.230 217.693,138.915 217.775,139.300 217.876 M315.314 219.400 C 315.317 220.500,315.395 220.903,315.487 220.295 C 315.579 219.686,315.577 218.786,315.482 218.295 C 315.387 217.803,315.311 218.300,315.314 219.400 M90.924 221.800 C 90.926 223.120,91.001 223.612,91.090 222.893 C 91.179 222.174,91.177 221.094,91.086 220.493 C 90.995 219.892,90.922 220.480,90.924 221.800 M300.937 223.800 C 300.939 225.560,301.009 226.230,301.093 225.289 C 301.178 224.349,301.177 222.909,301.091 222.089 C 301.005 221.270,300.936 222.040,300.937 223.800 M106.955 227.000 C 106.956 229.860,107.020 230.978,107.097 229.483 C 107.174 227.989,107.174 225.649,107.096 224.283 C 107.018 222.918,106.955 224.140,106.955 227.000 M328.100 230.676 C 328.485 230.776,329.115 230.776,329.500 230.676 C 329.885 230.575,329.570 230.493,328.800 230.493 C 328.030 230.493,327.715 230.575,328.100 230.676 M332.705 231.083 C 333.202 231.179,333.922 231.175,334.305 231.075 C 334.687 230.975,334.280 230.896,333.400 230.901 C 332.520 230.905,332.207 230.987,332.705 231.083 M341.900 231.482 C 342.395 231.578,343.205 231.578,343.700 231.482 C 344.195 231.387,343.790 231.309,342.800 231.309 C 341.810 231.309,341.405 231.387,341.900 231.482 M347.700 231.887 C 348.305 231.978,349.295 231.978,349.900 231.887 C 350.505 231.795,350.010 231.720,348.800 231.720 C 347.590 231.720,347.095 231.795,347.700 231.887 M106.493 236.000 C 106.493 236.770,106.575 237.085,106.676 236.700 C 106.776 236.315,106.776 235.685,106.676 235.300 C 106.575 234.915,106.493 235.230,106.493 236.000 M50.305 235.883 C 50.802 235.979,51.522 235.975,51.905 235.875 C 52.287 235.775,51.880 235.696,51.000 235.701 C 50.120 235.705,49.807 235.787,50.305 235.883 M63.107 236.290 C 63.826 236.379,64.906 236.377,65.507 236.286 C 66.108 236.195,65.520 236.122,64.200 236.124 C 62.880 236.126,62.388 236.201,63.107 236.290 M70.105 236.687 C 70.714 236.779,71.614 236.777,72.105 236.682 C 72.597 236.587,72.100 236.511,71.000 236.514 C 69.900 236.517,69.497 236.595,70.105 236.687 M37.200 242.600 C 37.946 243.370,38.647 244.000,38.757 244.000 C 38.867 244.000,38.346 243.370,37.600 242.600 C 36.854 241.830,36.153 241.200,36.043 241.200 C 35.933 241.200,36.454 241.830,37.200 242.600 M82.326 243.688 C 81.735 244.299,81.388 244.800,81.556 244.800 C 81.935 244.800,83.799 242.845,83.568 242.689 C 83.476 242.626,82.916 243.076,82.326 243.688 M348.716 244.297 C 350.099 244.375,352.259 244.374,353.516 244.295 C 354.772 244.216,353.640 244.152,351.000 244.153 C 348.360 244.153,347.332 244.218,348.716 244.297 " stroke="none" fill="#5e87be" fill-rule="evenodd"></path><path id="path3" d="M232.900 121.476 C 233.285 121.576,233.915 121.576,234.300 121.476 C 234.685 121.375,234.370 121.293,233.600 121.293 C 232.830 121.293,232.515 121.375,232.900 121.476 M229.000 122.759 C 227.900 123.392,226.370 124.505,225.600 125.232 C 211.380 138.654,204.754 145.219,198.181 152.400 C 196.872 153.830,195.118 155.697,194.283 156.549 C 193.447 157.400,192.836 158.169,192.924 158.258 C 193.012 158.346,194.843 156.479,196.992 154.109 C 206.417 143.715,226.322 124.634,229.661 122.793 C 230.838 122.145,231.620 121.613,231.400 121.611 C 231.180 121.609,230.100 122.126,229.000 122.759 M236.524 122.503 C 237.142 122.998,237.993 123.852,238.415 124.401 C 238.837 124.951,239.186 125.193,239.191 124.940 C 239.203 124.345,236.462 121.599,235.860 121.602 C 235.607 121.603,235.906 122.009,236.524 122.503 M142.900 124.687 C 143.505 124.778,144.495 124.778,145.100 124.687 C 145.705 124.595,145.210 124.520,144.000 124.520 C 142.790 124.520,142.295 124.595,142.900 124.687 M146.800 125.086 C 147.130 125.209,147.895 125.560,148.500 125.865 C 149.105 126.171,149.600 126.331,149.600 126.221 C 149.600 125.907,147.298 124.796,146.720 124.832 C 146.371 124.853,146.397 124.936,146.800 125.086 M137.978 127.100 L 136.600 128.600 138.100 127.222 C 138.925 126.463,139.600 125.788,139.600 125.722 C 139.600 125.416,139.262 125.704,137.978 127.100 M153.600 129.843 C 159.669 135.580,162.780 138.403,166.407 141.461 C 168.273 143.035,170.969 145.316,172.398 146.530 C 173.828 147.743,175.073 148.661,175.165 148.568 C 175.258 148.476,175.258 148.345,175.167 148.278 C 174.674 147.917,165.582 140.329,165.132 139.903 C 164.839 139.627,163.880 138.790,163.000 138.045 C 162.120 137.300,159.178 134.604,156.462 132.056 C 153.746 129.507,151.136 127.158,150.662 126.836 C 150.188 126.514,151.510 127.867,153.600 129.843 M240.056 127.600 C 240.056 127.930,240.211 128.560,240.400 129.000 C 240.617 129.504,240.744 129.578,240.744 129.200 C 240.744 128.870,240.589 128.240,240.400 127.800 C 240.183 127.296,240.056 127.222,240.056 127.600 M96.931 129.552 C 95.860 130.447,94.400 132.790,94.410 133.600 C 94.414 133.930,94.748 133.480,95.152 132.600 C 95.969 130.821,96.923 129.839,98.408 129.246 C 99.248 128.911,99.277 128.849,98.600 128.839 C 98.160 128.832,97.409 129.153,96.931 129.552 M100.400 129.235 C 100.950 129.447,101.825 130.110,102.344 130.710 C 102.863 131.309,103.151 131.530,102.984 131.200 C 102.347 129.939,101.027 128.801,100.230 128.825 C 99.496 128.848,99.515 128.895,100.400 129.235 M240.887 131.000 C 240.891 131.440,241.032 132.340,241.200 133.000 C 241.474 134.078,241.506 134.098,241.513 133.200 C 241.517 132.650,241.376 131.750,241.200 131.200 C 240.949 130.416,240.881 130.373,240.887 131.000 M134.972 142.800 C 134.972 147.970,135.029 150.085,135.099 147.500 C 135.168 144.915,135.168 140.685,135.099 138.100 C 135.029 135.515,134.972 137.630,134.972 142.800 M93.829 135.429 C 93.681 136.015,93.638 136.572,93.732 136.666 C 93.827 136.760,94.024 136.358,94.171 135.771 C 94.319 135.185,94.362 134.628,94.268 134.534 C 94.173 134.440,93.976 134.842,93.829 135.429 M104.307 142.240 C 104.475 151.971,104.676 152.969,104.700 144.200 C 104.711 140.240,104.599 136.568,104.452 136.040 C 104.304 135.512,104.239 138.302,104.307 142.240 M241.687 136.000 C 241.691 136.550,241.832 137.540,242.000 138.200 L 242.305 139.400 242.313 138.200 C 242.317 137.540,242.176 136.550,242.000 136.000 L 241.680 135.000 241.687 136.000 M93.000 140.000 C 92.845 141.128,92.808 142.141,92.918 142.251 C 93.028 142.361,93.245 141.528,93.400 140.400 C 93.555 139.272,93.592 138.259,93.482 138.149 C 93.372 138.039,93.155 138.872,93.000 140.000 M242.487 141.000 C 242.491 141.440,242.632 142.340,242.800 143.000 C 243.074 144.078,243.106 144.098,243.113 143.200 C 243.117 142.650,242.976 141.750,242.800 141.200 C 242.549 140.416,242.481 140.373,242.487 141.000 M219.498 148.886 C 215.416 153.129,212.135 156.660,212.205 156.733 C 212.275 156.806,214.192 154.916,216.466 152.533 C 227.700 140.758,227.108 141.298,227.574 142.405 L 227.992 143.400 227.896 142.431 C 227.712 140.575,226.871 141.221,219.498 148.886 M147.420 142.725 C 147.849 143.093,151.432 145.939,152.500 146.760 C 152.885 147.056,153.200 147.209,153.200 147.100 C 153.200 146.828,147.655 142.400,147.314 142.400 C 147.163 142.400,147.211 142.546,147.420 142.725 M145.854 145.056 C 145.540 147.349,145.618 173.024,145.967 182.000 C 146.114 185.792,146.219 178.942,146.212 165.901 C 146.205 153.416,146.179 143.201,146.154 143.201 C 146.129 143.200,145.994 144.035,145.854 145.056 M92.194 147.738 C 92.038 149.824,91.994 151.771,92.097 152.065 C 92.200 152.359,92.420 150.745,92.587 148.478 C 92.753 146.211,92.797 144.264,92.684 144.151 C 92.571 144.038,92.351 145.652,92.194 147.738 M228.080 145.200 C 228.080 145.750,228.224 146.650,228.400 147.200 L 228.720 148.200 228.720 147.200 C 228.720 146.650,228.576 145.750,228.400 145.200 L 228.080 144.200 228.080 145.200 M243.270 146.000 C 243.257 146.550,243.395 147.720,243.577 148.600 L 243.908 150.200 243.907 148.800 C 243.905 147.035,243.309 144.412,243.270 146.000 M306.800 148.403 C 306.387 148.673,306.771 148.719,308.034 148.552 C 309.690 148.333,310.021 148.435,311.434 149.605 L 313.000 150.902 311.506 149.451 C 309.962 147.952,308.121 147.542,306.800 148.403 M155.600 148.894 C 155.600 149.014,157.355 150.511,159.500 152.220 C 164.541 156.237,164.400 156.131,164.400 155.897 C 164.400 155.787,162.735 154.384,160.700 152.779 C 158.665 151.174,156.685 149.594,156.300 149.269 C 155.915 148.943,155.600 148.774,155.600 148.894 M175.600 148.917 C 175.600 149.099,184.863 157.449,186.515 158.757 C 186.903 159.063,187.313 159.221,187.426 159.107 C 187.540 158.993,187.101 158.562,186.451 158.150 C 185.801 157.737,184.398 156.590,183.334 155.600 C 180.140 152.626,175.600 148.704,175.600 148.917 M303.106 150.507 C 301.844 151.438,300.809 152.339,300.806 152.509 C 300.803 152.679,301.676 152.139,302.747 151.309 C 303.817 150.479,305.032 149.586,305.447 149.324 C 305.861 149.061,306.020 148.840,305.800 148.831 C 305.580 148.822,304.368 149.576,303.106 150.507 M228.880 150.400 C 228.868 151.170,229.003 152.610,229.180 153.600 C 229.476 155.267,229.501 155.297,229.520 154.000 C 229.532 153.230,229.397 151.790,229.220 150.800 C 228.924 149.133,228.899 149.103,228.880 150.400 M244.275 154.200 C 244.398 155.740,244.566 157.075,244.649 157.167 C 244.926 157.473,244.710 153.816,244.379 152.600 C 244.173 151.843,244.135 152.434,244.275 154.200 M296.200 156.253 C 294.000 158.140,291.746 160.070,291.191 160.542 C 289.292 162.157,284.200 166.599,284.000 166.816 C 283.635 167.211,275.008 174.584,273.833 175.506 C 273.198 176.004,272.750 176.484,272.839 176.572 C 272.928 176.661,275.610 174.479,278.800 171.724 C 281.990 168.968,288.155 163.659,292.500 159.926 C 299.404 153.993,300.755 152.762,300.300 152.811 C 300.245 152.817,298.400 154.366,296.200 156.253 M314.688 161.200 C 314.803 164.610,314.965 167.475,315.048 167.567 C 315.313 167.858,315.119 160.306,314.793 157.600 C 314.596 155.966,314.557 157.303,314.688 161.200 M164.800 156.242 C 164.800 156.443,165.205 156.860,165.700 157.168 C 166.195 157.476,168.400 159.169,170.600 160.931 C 175.667 164.990,175.600 164.940,175.600 164.679 C 175.600 164.558,173.485 162.798,170.900 160.768 C 168.315 158.737,165.885 156.806,165.500 156.476 C 165.115 156.146,164.800 156.041,164.800 156.242 M91.405 162.477 C 91.250 165.844,91.189 169.230,91.270 170.000 C 91.351 170.770,91.566 168.104,91.749 164.074 C 91.933 160.045,91.993 156.660,91.884 156.551 C 91.775 156.442,91.560 159.109,91.405 162.477 M206.200 162.711 C 203.120 165.726,201.140 167.803,201.800 167.325 C 203.018 166.443,212.349 157.188,211.993 157.214 C 211.887 157.222,209.280 159.695,206.200 162.711 M229.708 159.200 C 229.700 160.410,229.825 162.570,229.986 164.000 L 230.278 166.600 230.292 164.400 C 230.300 163.190,230.175 161.030,230.014 159.600 L 229.722 157.000 229.708 159.200 M188.515 159.640 C 188.997 159.921,189.584 159.927,190.315 159.660 C 191.316 159.294,191.261 159.262,189.600 159.244 C 188.167 159.228,187.946 159.309,188.515 159.640 M244.893 161.000 C 244.885 161.880,245.016 163.590,245.183 164.800 L 245.487 167.000 245.509 165.200 C 245.520 164.210,245.390 162.500,245.218 161.400 C 244.918 159.469,244.906 159.455,244.893 161.000 M134.658 174.925 C 134.471 180.604,134.405 185.339,134.513 185.447 C 134.769 185.702,135.313 169.213,135.136 166.600 C 135.061 165.500,134.846 169.246,134.658 174.925 M176.005 165.080 C 176.008 165.256,176.638 165.807,177.405 166.304 C 179.203 167.468,179.200 167.200,177.400 165.827 C 176.630 165.240,176.002 164.903,176.005 165.080 M104.919 171.800 C 104.905 174.880,105.022 179.830,105.179 182.800 L 105.463 188.200 105.478 183.400 C 105.487 180.760,105.370 175.810,105.219 172.400 L 104.943 166.200 104.919 171.800 M298.378 168.300 L 297.000 169.800 298.400 168.549 C 299.170 167.861,300.070 167.200,300.400 167.081 C 300.919 166.892,300.916 166.859,300.378 166.832 C 300.037 166.814,299.137 167.475,298.378 168.300 M181.200 168.767 C 182.163 169.552,182.800 169.808,182.800 169.410 C 182.800 169.306,182.215 168.935,181.500 168.586 L 180.200 167.952 181.200 168.767 M197.600 169.600 C 196.830 170.022,196.344 170.374,196.520 170.383 C 196.944 170.405,199.200 169.232,199.200 168.990 C 199.200 168.728,199.177 168.737,197.600 169.600 M245.690 170.600 C 245.684 171.480,245.816 173.190,245.983 174.400 L 246.287 176.600 246.314 174.600 C 246.329 173.500,246.197 171.790,246.020 170.800 L 245.700 169.000 245.690 170.600 M230.494 171.600 C 230.481 172.810,230.610 174.700,230.782 175.800 L 231.093 177.800 231.103 176.000 C 231.109 175.010,230.979 173.120,230.815 171.800 L 230.518 169.400 230.494 171.600 M290.400 175.268 C 283.571 181.387,280.901 184.005,285.600 179.974 C 287.250 178.559,288.690 177.311,288.800 177.200 C 289.130 176.870,296.587 170.237,296.767 170.114 C 296.858 170.051,296.858 169.935,296.767 169.856 C 296.675 169.778,293.810 172.213,290.400 175.268 M185.200 170.800 C 185.530 171.013,186.160 171.178,186.600 171.166 L 187.400 171.144 186.600 170.800 C 185.404 170.286,184.405 170.286,185.200 170.800 M194.600 170.800 C 193.829 171.131,193.831 171.145,194.676 171.172 C 195.158 171.187,195.664 171.020,195.800 170.800 C 196.092 170.327,195.701 170.327,194.600 170.800 M189.179 171.607 C 189.938 171.785,191.288 171.786,192.179 171.609 C 193.581 171.331,193.395 171.287,190.800 171.285 C 188.402 171.282,188.077 171.347,189.179 171.607 M315.357 196.000 C 315.363 215.783,315.395 216.868,315.707 207.725 C 315.901 202.040,315.899 192.541,315.701 185.925 C 315.363 174.600,315.351 174.944,315.357 196.000 M271.176 177.713 C 268.318 180.189,266.734 181.460,263.924 183.532 C 262.232 184.779,260.837 185.944,260.824 186.121 C 260.795 186.510,267.816 181.131,270.600 178.631 C 272.607 176.830,273.096 176.049,271.176 177.713 M246.473 179.600 C 246.458 180.370,246.595 181.720,246.777 182.600 C 247.236 184.821,247.274 182.550,246.820 180.000 C 246.522 178.322,246.498 178.295,246.473 179.600 M90.747 191.100 C 90.652 197.645,90.681 206.780,90.810 211.400 C 90.982 217.557,91.066 214.380,91.123 199.500 C 91.165 188.335,91.137 179.200,91.059 179.200 C 90.982 179.200,90.841 184.555,90.747 191.100 M231.293 181.200 C 231.295 182.965,231.891 185.588,231.930 184.000 C 231.943 183.450,231.805 182.280,231.623 181.400 L 231.292 179.800 231.293 181.200 M281.071 183.526 C 279.967 184.678,279.680 185.600,280.424 185.600 C 280.657 185.600,280.737 185.422,280.602 185.203 C 280.467 184.985,280.828 184.336,281.403 183.761 C 281.978 183.186,282.379 182.646,282.295 182.562 C 282.211 182.477,281.660 182.911,281.071 183.526 M247.270 186.800 C 247.257 187.350,247.395 188.520,247.577 189.400 L 247.908 191.000 247.907 189.600 C 247.905 187.835,247.309 185.212,247.270 186.800 M232.075 187.400 C 232.065 188.060,232.211 188.960,232.400 189.400 L 232.744 190.200 232.725 189.400 C 232.714 188.960,232.568 188.060,232.400 187.400 L 232.095 186.200 232.075 187.400 M256.404 189.436 C 252.239 192.765,248.660 196.000,249.142 196.000 C 249.312 196.000,249.979 195.441,250.625 194.757 C 251.271 194.074,253.735 191.985,256.100 190.116 C 259.869 187.138,260.709 186.395,260.300 186.402 C 260.245 186.402,258.492 187.768,256.404 189.436 M232.868 191.400 C 232.862 191.840,233.011 192.560,233.200 193.000 C 233.638 194.019,233.638 192.968,233.200 191.600 C 232.943 190.796,232.877 190.757,232.868 191.400 M49.022 192.287 C 48.029 193.280,46.988 194.800,47.301 194.800 C 47.372 194.800,48.108 193.990,48.935 193.000 C 50.623 190.981,50.664 190.645,49.022 192.287 M53.999 192.198 C 54.514 192.748,55.025 193.109,55.132 193.001 C 55.398 192.735,53.979 191.200,53.468 191.200 C 53.244 191.200,53.483 191.649,53.999 192.198 M248.068 192.800 C 248.062 193.350,248.211 194.160,248.400 194.600 L 248.744 195.400 248.732 194.600 C 248.726 194.160,248.576 193.350,248.400 192.800 L 248.080 191.800 248.068 192.800 M134.517 197.400 C 134.504 199.820,134.623 203.600,134.781 205.800 L 135.068 209.800 135.080 206.200 C 135.086 204.220,134.967 200.440,134.816 197.800 L 134.540 193.000 134.517 197.400 M355.400 193.397 C 355.620 193.470,356.293 193.639,356.896 193.772 C 357.686 193.946,358.266 194.541,358.977 195.907 C 360.086 198.037,360.302 198.021,359.406 195.876 C 358.703 194.193,357.412 193.188,356.011 193.232 C 355.455 193.249,355.180 193.323,355.400 193.397 M55.371 195.551 C 55.387 196.635,55.532 197.314,55.694 197.061 C 56.085 196.447,56.068 194.727,55.664 194.091 C 55.477 193.795,55.353 194.407,55.371 195.551 M299.600 194.000 C 300.376 194.501,300.800 194.501,300.800 194.000 C 300.800 193.780,300.395 193.603,299.900 193.606 C 299.172 193.611,299.115 193.686,299.600 194.000 M352.796 194.806 C 352.324 195.469,352.007 196.220,352.092 196.475 C 352.176 196.729,352.473 196.389,352.751 195.717 C 353.029 195.046,353.649 194.307,354.128 194.075 C 354.801 193.751,354.846 193.648,354.327 193.627 C 353.957 193.612,353.268 194.143,352.796 194.806 M105.718 197.800 C 105.709 200.000,105.828 203.780,105.983 206.200 L 106.264 210.600 106.283 206.400 C 106.293 204.090,106.174 200.310,106.018 198.000 L 105.734 193.800 105.718 197.800 M233.606 195.033 C 233.609 195.455,233.795 196.070,234.018 196.400 C 234.315 196.838,234.352 196.676,234.156 195.800 C 233.827 194.329,233.598 194.010,233.606 195.033 M266.200 196.400 C 265.369 197.060,264.873 197.600,265.096 197.600 C 265.319 197.600,265.737 197.317,266.024 196.972 C 266.311 196.626,267.098 196.101,267.773 195.804 C 268.448 195.508,268.710 195.251,268.355 195.233 C 268.000 195.215,267.031 195.740,266.200 196.400 M270.433 195.329 C 270.915 195.704,274.800 197.583,274.800 197.442 C 274.800 197.154,271.281 195.200,270.762 195.200 C 270.490 195.200,270.342 195.258,270.433 195.329 M45.028 198.261 C 44.456 199.284,44.069 200.202,44.167 200.301 C 44.266 200.399,44.811 199.562,45.380 198.440 C 46.673 195.888,46.425 195.762,45.028 198.261 M146.558 203.000 C 146.558 206.080,146.621 207.287,146.697 205.682 C 146.773 204.078,146.773 201.558,146.696 200.082 C 146.619 198.607,146.557 199.920,146.558 203.000 M234.412 198.000 C 234.412 198.330,234.587 198.870,234.800 199.200 C 235.145 199.733,235.188 199.733,235.188 199.200 C 235.188 198.870,235.013 198.330,234.800 198.000 C 234.455 197.467,234.412 197.467,234.412 198.000 M275.200 197.714 C 275.200 197.955,278.306 200.000,278.671 200.000 C 278.830 200.000,278.789 199.849,278.580 199.664 C 277.952 199.108,275.200 197.521,275.200 197.714 M352.087 198.600 C 352.083 199.260,352.224 200.250,352.400 200.800 L 352.720 201.800 352.713 200.800 C 352.709 200.250,352.568 199.260,352.400 198.600 L 352.095 197.400 352.087 198.600 M259.194 203.500 L 253.800 209.000 259.300 203.606 C 262.325 200.639,264.800 198.164,264.800 198.106 C 264.800 197.819,264.206 198.391,259.194 203.500 M54.600 199.200 C 54.450 199.673,54.417 200.150,54.527 200.260 C 54.637 200.370,54.850 200.073,55.000 199.600 C 55.150 199.127,55.183 198.650,55.073 198.540 C 54.963 198.430,54.750 198.727,54.600 199.200 M361.050 200.800 C 361.425 202.305,362.334 204.284,362.338 203.600 C 362.339 203.270,361.994 202.280,361.571 201.400 C 361.148 200.520,360.914 200.250,361.050 200.800 M43.023 202.206 C 42.160 204.272,42.274 204.506,43.247 202.662 C 43.693 201.816,43.965 201.032,43.852 200.919 C 43.739 200.806,43.366 201.385,43.023 202.206 M53.829 201.829 C 53.681 202.415,53.651 202.984,53.761 203.094 C 53.871 203.204,54.081 202.815,54.229 202.229 C 54.376 201.642,54.406 201.073,54.296 200.963 C 54.186 200.853,53.976 201.242,53.829 201.829 M284.000 202.595 C 284.000 202.805,286.735 204.011,287.149 203.983 C 287.470 203.962,284.701 202.439,284.300 202.417 C 284.135 202.408,284.000 202.488,284.000 202.595 M352.880 203.600 C 352.880 204.150,353.024 205.050,353.200 205.600 L 353.520 206.600 353.520 205.600 C 353.520 205.050,353.376 204.150,353.200 203.600 L 352.880 202.600 352.880 203.600 M53.029 204.629 C 52.881 205.215,52.851 205.784,52.961 205.894 C 53.071 206.004,53.281 205.615,53.429 205.029 C 53.576 204.442,53.606 203.873,53.496 203.763 C 53.386 203.653,53.176 204.042,53.029 204.629 M41.423 205.806 C 40.560 207.872,40.674 208.106,41.647 206.262 C 42.093 205.416,42.365 204.632,42.252 204.519 C 42.139 204.406,41.766 204.985,41.423 205.806 M237.600 205.762 C 237.600 205.939,238.029 206.595,238.554 207.218 C 239.342 208.155,239.472 208.661,239.306 210.139 C 239.163 211.404,239.294 212.199,239.752 212.853 C 240.108 213.362,240.400 213.569,240.400 213.313 C 240.400 213.057,240.198 212.722,239.951 212.570 C 239.665 212.393,239.584 211.594,239.729 210.372 C 239.914 208.810,239.799 208.242,239.110 207.326 C 237.882 205.693,237.600 205.401,237.600 205.762 M52.229 207.429 C 52.081 208.015,52.051 208.584,52.161 208.694 C 52.271 208.804,52.481 208.415,52.629 207.829 C 52.776 207.242,52.806 206.673,52.696 206.563 C 52.586 206.453,52.376 206.842,52.229 207.429 M295.600 207.332 C 295.600 207.415,296.410 207.996,297.400 208.622 C 298.390 209.248,299.200 209.904,299.200 210.080 C 299.200 210.256,299.425 210.394,299.700 210.386 C 299.975 210.378,299.660 209.918,299.000 209.365 C 297.803 208.360,295.600 207.043,295.600 207.332 M353.687 208.000 C 353.683 208.550,353.824 209.450,354.000 210.000 C 354.431 211.344,354.431 209.892,354.000 208.200 C 353.726 207.122,353.694 207.102,353.687 208.000 M251.600 210.470 C 250.610 211.353,250.340 211.701,251.000 211.244 C 253.010 209.851,253.750 209.216,253.570 209.037 C 253.476 208.943,252.589 209.588,251.600 210.470 M51.429 210.229 C 51.281 210.815,51.251 211.384,51.361 211.494 C 51.471 211.604,51.681 211.215,51.829 210.629 C 51.976 210.042,52.006 209.473,51.896 209.363 C 51.786 209.253,51.576 209.642,51.429 210.229 M146.049 210.800 C 146.016 211.130,145.889 211.850,145.767 212.400 C 145.575 213.264,145.607 213.303,145.999 212.688 C 146.248 212.297,146.375 211.577,146.281 211.088 C 146.186 210.600,146.082 210.470,146.049 210.800 M364.834 212.000 C 364.846 212.330,365.011 212.960,365.200 213.400 L 365.544 214.200 365.566 213.400 C 365.578 212.960,365.413 212.330,365.200 212.000 C 364.855 211.467,364.815 211.467,364.834 212.000 M354.468 212.800 C 354.462 213.350,354.611 214.160,354.800 214.600 L 355.144 215.400 355.132 214.600 C 355.126 214.160,354.976 213.350,354.800 212.800 L 354.480 211.800 354.468 212.800 M50.600 213.200 C 50.450 213.673,50.417 214.150,50.527 214.260 C 50.637 214.370,50.850 214.073,51.000 213.600 C 51.150 213.127,51.183 212.650,51.073 212.540 C 50.963 212.430,50.750 212.727,50.600 213.200 M135.242 213.200 C 135.206 214.126,136.514 216.800,137.003 216.800 C 137.122 216.800,136.921 216.345,136.557 215.790 C 136.193 215.234,135.757 214.199,135.588 213.490 C 135.325 212.382,135.276 212.341,135.242 213.200 M246.800 213.600 C 246.030 214.022,245.544 214.374,245.720 214.383 C 246.144 214.405,248.400 213.232,248.400 212.990 C 248.400 212.728,248.377 212.737,246.800 213.600 M144.598 214.946 C 144.157 215.636,143.167 216.515,142.398 216.899 C 140.907 217.646,141.332 217.887,142.889 217.178 C 143.777 216.773,145.883 214.137,145.558 213.837 C 145.471 213.757,145.039 214.256,144.598 214.946 M241.376 214.170 C 241.804 214.517,242.794 214.777,243.576 214.750 L 245.000 214.700 243.400 214.436 C 242.520 214.291,241.530 214.030,241.200 213.856 C 240.870 213.683,240.949 213.824,241.376 214.170 M37.800 215.200 C 37.650 215.673,37.617 216.150,37.727 216.260 C 37.837 216.370,38.050 216.073,38.200 215.600 C 38.350 215.127,38.383 214.650,38.273 214.540 C 38.163 214.430,37.950 214.727,37.800 215.200 M365.634 214.800 C 365.646 215.130,365.811 215.760,366.000 216.200 L 366.344 217.000 366.366 216.200 C 366.378 215.760,366.213 215.130,366.000 214.800 C 365.655 214.267,365.615 214.267,365.634 214.800 M301.701 216.200 C 301.705 217.080,301.787 217.393,301.883 216.895 C 301.979 216.398,301.975 215.678,301.875 215.295 C 301.775 214.913,301.696 215.320,301.701 216.200 M355.280 217.200 C 355.280 217.750,355.424 218.650,355.600 219.200 L 355.920 220.200 355.920 219.200 C 355.920 218.650,355.776 217.750,355.600 217.200 L 355.280 216.200 355.280 217.200 M37.000 217.600 C 36.850 218.073,36.817 218.550,36.927 218.660 C 37.037 218.770,37.250 218.473,37.400 218.000 C 37.550 217.527,37.583 217.050,37.473 216.940 C 37.363 216.830,37.150 217.127,37.000 217.600 M106.571 226.000 C 106.571 230.950,106.628 232.975,106.699 230.500 C 106.769 228.025,106.769 223.975,106.699 221.500 C 106.628 219.025,106.571 221.050,106.571 226.000 M366.456 218.000 C 366.456 218.330,366.611 218.960,366.800 219.400 C 367.017 219.904,367.144 219.978,367.144 219.600 C 367.144 219.270,366.989 218.640,366.800 218.200 C 366.583 217.696,366.456 217.622,366.456 218.000 M49.029 219.029 C 48.881 219.615,48.838 220.172,48.932 220.266 C 49.027 220.360,49.224 219.958,49.371 219.371 C 49.519 218.785,49.562 218.228,49.468 218.134 C 49.373 218.040,49.176 218.442,49.029 219.029 M36.229 220.229 C 36.081 220.815,36.038 221.372,36.132 221.466 C 36.227 221.560,36.424 221.158,36.571 220.571 C 36.719 219.985,36.762 219.428,36.668 219.334 C 36.573 219.240,36.376 219.642,36.229 220.229 M301.348 223.600 C 301.348 225.910,301.414 226.855,301.495 225.700 C 301.576 224.545,301.576 222.655,301.495 221.500 C 301.414 220.345,301.348 221.290,301.348 223.600 M48.229 221.829 C 48.081 222.415,48.051 222.984,48.161 223.094 C 48.271 223.204,48.481 222.815,48.629 222.229 C 48.776 221.642,48.806 221.073,48.696 220.963 C 48.586 220.853,48.376 221.242,48.229 221.829 M356.087 221.800 C 356.083 222.460,356.224 223.450,356.400 224.000 L 356.720 225.000 356.713 224.000 C 356.709 223.450,356.568 222.460,356.400 221.800 L 356.095 220.600 356.087 221.800 M367.287 221.600 C 367.291 222.150,367.432 223.140,367.600 223.800 L 367.905 225.000 367.913 223.800 C 367.917 223.140,367.776 222.150,367.600 221.600 L 367.280 220.600 367.287 221.600 M35.429 223.029 C 35.281 223.615,35.238 224.172,35.332 224.266 C 35.427 224.360,35.624 223.958,35.771 223.371 C 35.919 222.785,35.962 222.228,35.868 222.134 C 35.773 222.040,35.576 222.442,35.429 223.029 M314.611 226.178 C 314.322 230.419,314.478 231.452,315.328 230.914 C 315.587 230.749,316.700 230.487,317.800 230.331 C 319.660 230.068,319.624 230.058,317.290 230.187 L 314.780 230.326 315.049 226.163 C 315.197 223.873,315.223 222.000,315.107 222.000 C 314.991 222.000,314.767 223.880,314.611 226.178 M47.429 225.029 C 47.281 225.615,47.238 226.172,47.332 226.266 C 47.427 226.360,47.624 225.958,47.771 225.371 C 47.919 224.785,47.962 224.228,47.868 224.134 C 47.773 224.040,47.576 224.442,47.429 225.029 M34.600 226.400 C 34.448 227.091,34.407 227.741,34.509 227.842 C 34.611 227.944,34.809 227.453,34.950 226.750 C 35.283 225.083,34.960 224.760,34.600 226.400 M91.296 227.400 C 91.282 228.720,91.410 230.700,91.582 231.800 L 91.893 233.800 91.900 232.000 C 91.903 231.010,91.775 229.030,91.614 227.600 L 91.322 225.000 91.296 227.400 M357.023 227.800 C 357.209 230.357,357.061 230.807,355.800 231.522 C 355.360 231.772,355.205 231.981,355.456 231.988 C 357.083 232.031,357.740 230.589,357.289 227.964 L 356.849 225.400 357.023 227.800 M368.091 229.800 C 368.090 233.268,368.137 233.553,368.447 231.940 C 368.657 230.851,368.658 229.194,368.449 227.940 C 368.122 225.973,368.093 226.124,368.091 229.800 M46.650 228.050 C 46.317 229.717,46.640 230.040,47.000 228.400 C 47.152 227.709,47.193 227.059,47.091 226.958 C 46.989 226.856,46.791 227.347,46.650 228.050 M33.850 230.050 C 33.509 231.757,33.545 236.095,33.906 236.660 C 34.068 236.913,34.205 235.248,34.211 232.960 C 34.224 228.367,34.210 228.252,33.850 230.050 M301.668 229.800 C 301.662 230.240,301.811 230.960,302.000 231.400 C 302.438 232.419,302.438 231.368,302.000 230.000 C 301.743 229.196,301.677 229.157,301.668 229.800 M45.852 231.300 C 45.103 234.096,46.204 236.033,48.500 235.957 C 49.749 235.916,49.735 235.900,48.139 235.541 C 46.265 235.121,45.782 234.168,46.231 231.776 C 46.518 230.248,46.231 229.887,45.852 231.300 M324.800 230.814 C 326.230 230.975,328.480 231.100,329.800 231.092 L 332.200 231.078 329.600 230.786 C 328.170 230.625,325.920 230.500,324.600 230.508 L 322.200 230.522 324.800 230.814 M338.200 231.613 C 339.740 231.771,342.350 231.895,344.000 231.888 L 347.000 231.876 343.600 231.578 C 341.730 231.414,339.120 231.290,337.800 231.303 L 335.400 231.326 338.200 231.613 M367.023 236.142 C 366.047 238.223,362.744 241.760,361.167 242.414 C 360.511 242.685,360.062 242.995,360.169 243.102 C 361.065 243.998,366.991 238.148,367.814 235.557 C 368.275 234.103,367.821 234.439,367.023 236.142 M303.209 235.233 C 303.214 235.545,303.585 236.250,304.033 236.800 L 304.848 237.800 304.173 236.400 C 303.348 234.688,303.197 234.506,303.209 235.233 M92.086 236.400 C 92.083 237.170,92.224 238.250,92.400 238.800 C 92.850 240.204,92.865 238.737,92.423 236.600 L 92.092 235.000 92.086 236.400 M57.400 236.419 C 59.600 236.577,63.200 236.697,65.400 236.686 L 69.400 236.666 65.200 236.382 C 62.890 236.226,59.290 236.106,57.200 236.115 L 53.400 236.132 57.400 236.419 M73.633 236.944 C 73.725 237.024,75.420 237.188,77.400 237.310 C 79.468 237.436,80.574 237.392,80.000 237.205 C 79.029 236.889,73.299 236.655,73.633 236.944 M34.404 237.938 C 34.396 239.037,39.215 244.800,40.141 244.800 C 40.346 244.800,39.667 244.056,38.634 243.146 C 37.600 242.236,36.226 240.571,35.581 239.446 C 34.936 238.321,34.406 237.642,34.404 237.938 M82.052 238.573 C 82.567 239.107,83.065 239.469,83.158 239.375 C 83.397 239.136,81.958 237.600,81.496 237.600 C 81.287 237.600,81.537 238.038,82.052 238.573 M106.054 238.400 C 106.019 238.950,105.896 239.850,105.783 240.400 L 105.577 241.400 106.007 240.415 C 106.243 239.874,106.365 238.974,106.278 238.415 L 106.120 237.400 106.054 238.400 M319.800 239.600 C 320.240 239.789,320.870 239.944,321.200 239.944 C 321.578 239.944,321.504 239.817,321.000 239.600 C 320.560 239.411,319.930 239.256,319.600 239.256 C 319.222 239.256,319.296 239.383,319.800 239.600 M83.293 241.200 C 83.293 241.970,83.375 242.285,83.476 241.900 C 83.576 241.515,83.576 240.885,83.476 240.500 C 83.375 240.115,83.293 240.430,83.293 241.200 M307.900 240.515 C 308.465 240.770,309.107 240.785,309.623 240.555 C 310.290 240.258,310.119 240.180,308.723 240.147 C 307.247 240.113,307.129 240.166,307.900 240.515 M322.400 240.400 C 322.730 240.613,323.360 240.778,323.800 240.766 L 324.600 240.744 323.800 240.400 C 322.604 239.886,321.605 239.886,322.400 240.400 M92.800 240.876 C 92.800 242.671,96.354 246.400,98.065 246.400 C 98.342 246.400,97.770 245.995,96.793 245.500 C 95.423 244.806,94.763 244.109,93.908 242.454 C 93.299 241.274,92.800 240.564,92.800 240.876 M325.800 241.200 C 326.240 241.389,326.960 241.538,327.400 241.532 C 328.043 241.523,328.004 241.457,327.200 241.200 C 325.832 240.762,324.781 240.762,325.800 241.200 M105.232 242.087 C 105.214 242.464,104.538 243.435,103.730 244.243 C 102.921 245.052,102.506 245.631,102.807 245.531 C 103.687 245.238,105.708 242.513,105.476 241.932 C 105.331 241.570,105.253 241.620,105.232 242.087 M329.600 242.000 C 330.150 242.176,331.050 242.317,331.600 242.313 C 332.498 242.306,332.478 242.274,331.400 242.000 C 329.708 241.569,328.256 241.569,329.600 242.000 M334.400 242.800 C 334.950 242.976,336.030 243.117,336.800 243.114 L 338.200 243.108 336.600 242.777 C 334.463 242.335,332.996 242.350,334.400 242.800 M82.399 243.402 C 82.124 243.732,81.337 244.166,80.650 244.366 C 79.691 244.644,79.604 244.736,80.278 244.764 C 80.760 244.784,81.660 244.356,82.278 243.813 C 82.895 243.270,83.287 242.820,83.149 242.813 C 83.011 242.806,82.673 243.071,82.399 243.402 M341.000 243.601 C 342.594 243.953,346.284 244.136,345.967 243.849 C 345.875 243.765,344.360 243.596,342.600 243.473 C 340.250 243.308,339.825 243.342,341.000 243.601 M357.000 243.600 L 355.800 243.905 357.000 243.925 C 357.660 243.935,358.560 243.789,359.000 243.600 L 359.800 243.256 359.000 243.275 C 358.560 243.286,357.660 243.432,357.000 243.600 M75.600 245.200 L 74.600 245.520 75.600 245.520 C 76.150 245.520,77.050 245.376,77.600 245.200 L 78.600 244.880 77.600 244.880 C 77.050 244.880,76.150 245.024,75.600 245.200 M43.200 245.982 C 43.530 246.205,44.145 246.391,44.567 246.394 C 45.590 246.402,45.271 246.173,43.800 245.844 C 42.924 245.648,42.762 245.685,43.200 245.982 M69.600 246.000 C 68.229 246.289,68.225 246.295,69.400 246.324 C 70.060 246.341,71.320 246.205,72.200 246.023 L 73.800 245.692 72.400 245.699 C 71.630 245.702,70.370 245.838,69.600 246.000 M100.200 246.000 L 99.400 246.344 100.200 246.366 C 100.640 246.378,101.270 246.213,101.600 246.000 C 102.395 245.486,101.396 245.486,100.200 246.000 M47.000 246.791 C 48.200 247.105,53.081 247.329,52.767 247.055 C 52.675 246.975,51.070 246.813,49.200 246.694 C 47.244 246.569,46.310 246.610,47.000 246.791 M59.600 246.800 L 56.200 247.051 59.600 247.090 C 61.470 247.112,63.900 246.990,65.000 246.818 L 67.000 246.507 65.000 246.528 C 63.900 246.540,61.470 246.662,59.600 246.800 " stroke="none" fill="#85a4ce" fill-rule="evenodd"></path><path id="path4" d="M227.800 123.035 L 226.600 124.066 228.000 123.163 C 229.796 122.004,229.801 122.000,229.367 122.002 C 229.165 122.003,228.460 122.468,227.800 123.035 M223.586 126.700 L 221.400 129.000 223.700 126.814 C 224.965 125.611,226.000 124.576,226.000 124.514 C 226.000 124.217,225.618 124.563,223.586 126.700 M138.199 126.055 C 137.413 126.745,136.582 127.690,136.352 128.155 C 136.123 128.620,136.403 128.428,136.974 127.728 C 137.546 127.029,138.505 126.090,139.107 125.641 C 139.708 125.192,140.071 124.820,139.914 124.813 C 139.757 124.806,138.985 125.365,138.199 126.055 M149.800 125.857 C 151.837 127.664,152.587 128.191,151.802 127.263 C 151.366 126.748,150.647 126.141,150.204 125.914 C 149.762 125.687,149.580 125.662,149.800 125.857 M157.000 132.400 C 158.971 134.380,160.673 136.000,160.783 136.000 C 160.893 136.000,159.371 134.380,157.400 132.400 C 155.429 130.420,153.727 128.800,153.617 128.800 C 153.507 128.800,155.029 130.420,157.000 132.400 M217.188 132.700 L 214.600 135.400 217.300 132.812 C 218.785 131.388,220.000 130.173,220.000 130.112 C 220.000 129.817,219.593 130.192,217.188 132.700 M241.693 132.800 C 241.693 133.570,241.775 133.885,241.876 133.500 C 241.976 133.115,241.976 132.485,241.876 132.100 C 241.775 131.715,241.693 132.030,241.693 132.800 M134.524 135.400 C 134.526 136.720,134.601 137.212,134.690 136.493 C 134.779 135.774,134.777 134.694,134.686 134.093 C 134.595 133.492,134.522 134.080,134.524 135.400 M104.975 146.800 C 104.975 152.630,105.031 155.015,105.099 152.100 C 105.167 149.185,105.167 144.415,105.099 141.500 C 105.031 138.585,104.975 140.970,104.975 146.800 M206.793 142.700 L 202.200 147.400 206.900 142.807 C 211.266 138.540,211.782 138.000,211.493 138.000 C 211.435 138.000,209.320 140.115,206.793 142.700 M134.572 148.400 C 134.572 153.570,134.629 155.685,134.699 153.100 C 134.768 150.515,134.768 146.285,134.699 143.700 C 134.629 141.115,134.572 143.230,134.572 148.400 M92.501 141.000 C 92.505 141.880,92.587 142.193,92.683 141.695 C 92.779 141.198,92.775 140.478,92.675 140.095 C 92.575 139.713,92.496 140.120,92.501 141.000 M225.771 142.890 L 225.000 143.800 225.924 143.016 C 226.717 142.343,226.907 142.315,227.255 142.816 C 227.599 143.311,227.637 143.313,227.505 142.825 C 227.253 141.893,226.595 141.917,225.771 142.890 M220.185 148.900 L 218.200 151.000 220.300 149.015 C 222.251 147.171,222.583 146.800,222.285 146.800 C 222.222 146.800,221.277 147.745,220.185 148.900 M91.734 150.400 C 91.734 152.050,91.805 152.725,91.891 151.900 C 91.978 151.075,91.978 149.725,91.891 148.900 C 91.805 148.075,91.734 148.750,91.734 150.400 M244.093 148.800 C 244.093 149.570,244.175 149.885,244.276 149.500 C 244.376 149.115,244.376 148.485,244.276 148.100 C 244.175 147.715,244.093 148.030,244.093 148.800 M306.662 147.900 C 306.560 148.065,307.432 148.200,308.600 148.200 C 309.768 148.200,310.640 148.065,310.538 147.900 C 310.436 147.735,309.564 147.600,308.600 147.600 C 307.636 147.600,306.764 147.735,306.662 147.900 M311.994 149.403 C 313.587 151.321,313.721 151.445,313.286 150.596 C 313.059 150.153,312.452 149.434,311.937 148.998 C 311.033 148.234,311.035 148.248,311.994 149.403 M199.178 150.700 L 197.800 152.200 199.300 150.822 C 200.125 150.063,200.800 149.388,200.800 149.322 C 200.800 149.016,200.462 149.304,199.178 150.700 M146.169 157.600 C 146.169 162.110,146.227 163.955,146.298 161.700 C 146.370 159.445,146.370 155.755,146.298 153.500 C 146.227 151.245,146.169 153.090,146.169 157.600 M313.614 151.654 C 313.606 151.794,313.863 152.514,314.184 153.254 C 314.506 153.994,314.769 154.330,314.770 154.000 C 314.772 153.424,313.643 151.134,313.614 151.654 M195.781 154.500 L 194.200 156.200 195.900 154.619 C 197.481 153.148,197.784 152.800,197.481 152.800 C 197.416 152.800,196.651 153.565,195.781 154.500 M181.200 153.325 C 181.200 153.394,181.785 153.979,182.500 154.625 L 183.800 155.800 182.625 154.500 C 181.530 153.288,181.200 153.016,181.200 153.325 M244.920 156.000 C 244.920 157.210,244.995 157.705,245.087 157.100 C 245.178 156.495,245.178 155.505,245.087 154.900 C 244.995 154.295,244.920 154.790,244.920 156.000 M211.789 157.700 L 209.000 160.600 211.900 157.811 C 213.495 156.277,214.800 154.972,214.800 154.911 C 214.800 154.617,214.380 155.006,211.789 157.700 M91.309 157.200 C 91.309 158.190,91.387 158.595,91.482 158.100 C 91.578 157.605,91.578 156.795,91.482 156.300 C 91.387 155.805,91.309 156.210,91.309 157.200 M229.320 158.400 C 229.320 159.610,229.395 160.105,229.487 159.500 C 229.578 158.895,229.578 157.905,229.487 157.300 C 229.395 156.695,229.320 157.190,229.320 158.400 M315.354 164.400 C 315.354 167.150,315.418 168.275,315.496 166.900 C 315.574 165.525,315.574 163.275,315.496 161.900 C 315.418 160.525,315.354 161.650,315.354 164.400 M134.553 166.600 C 134.553 169.240,134.618 170.268,134.697 168.884 C 134.775 167.501,134.774 165.341,134.695 164.084 C 134.616 162.828,134.552 163.960,134.553 166.600 M205.781 164.100 L 204.200 165.800 205.900 164.219 C 207.481 162.748,207.784 162.400,207.481 162.400 C 207.416 162.400,206.651 163.165,205.781 164.100 M90.955 168.200 C 90.956 171.060,91.020 172.178,91.097 170.683 C 91.174 169.189,91.174 166.849,91.096 165.483 C 91.018 164.118,90.955 165.340,90.955 168.200 M245.720 165.200 C 245.720 166.410,245.795 166.905,245.887 166.300 C 245.978 165.695,245.978 164.705,245.887 164.100 C 245.795 163.495,245.720 163.990,245.720 165.200 M105.344 167.600 C 105.344 169.690,105.412 170.545,105.494 169.500 C 105.576 168.455,105.576 166.745,105.494 165.700 C 105.412 164.655,105.344 165.510,105.344 167.600 M229.693 165.600 C 229.693 166.370,229.775 166.685,229.876 166.300 C 229.976 165.915,229.976 165.285,229.876 164.900 C 229.775 164.515,229.693 164.830,229.693 165.600 M283.375 166.900 L 282.200 168.200 283.500 167.025 C 284.215 166.379,284.800 165.794,284.800 165.725 C 284.800 165.416,284.470 165.688,283.375 166.900 M230.128 171.200 C 230.128 172.630,230.201 173.215,230.289 172.500 C 230.378 171.785,230.378 170.615,230.289 169.900 C 230.201 169.185,230.128 169.770,230.128 171.200 M296.975 170.100 L 295.800 171.400 297.100 170.225 C 297.815 169.579,298.400 168.994,298.400 168.925 C 298.400 168.616,298.070 168.888,296.975 170.100 M246.520 174.800 C 246.520 176.010,246.595 176.505,246.687 175.900 C 246.778 175.295,246.778 174.305,246.687 173.700 C 246.595 173.095,246.520 173.590,246.520 174.800 M315.740 176.000 C 315.740 177.870,315.809 178.635,315.893 177.700 C 315.977 176.765,315.977 175.235,315.893 174.300 C 315.809 173.365,315.740 174.130,315.740 176.000 M289.775 176.500 L 288.600 177.800 289.900 176.625 C 290.615 175.979,291.200 175.394,291.200 175.325 C 291.200 175.016,290.870 175.288,289.775 176.500 M146.567 183.200 C 146.567 187.490,146.626 189.245,146.698 187.100 C 146.770 184.955,146.770 181.445,146.698 179.300 C 146.626 177.155,146.567 178.910,146.567 183.200 M134.162 182.600 C 134.162 186.120,134.224 187.506,134.298 185.681 C 134.372 183.856,134.372 180.976,134.297 179.281 C 134.222 177.586,134.161 179.080,134.162 182.600 M90.542 180.600 C 90.541 182.580,90.608 183.440,90.692 182.512 C 90.776 181.584,90.777 179.964,90.695 178.912 C 90.612 177.860,90.543 178.620,90.542 180.600 M105.758 184.200 C 105.758 187.280,105.821 188.487,105.897 186.882 C 105.973 185.278,105.973 182.758,105.896 181.282 C 105.819 179.807,105.757 181.120,105.758 184.200 M230.909 180.800 C 230.909 181.790,230.987 182.195,231.082 181.700 C 231.178 181.205,231.178 180.395,231.082 179.900 C 230.987 179.405,230.909 179.810,230.909 180.800 M247.301 183.000 C 247.305 183.880,247.387 184.193,247.483 183.695 C 247.579 183.198,247.575 182.478,247.475 182.095 C 247.375 181.713,247.296 182.120,247.301 183.000 M231.693 187.200 C 231.693 187.970,231.775 188.285,231.876 187.900 C 231.976 187.515,231.976 186.885,231.876 186.500 C 231.775 186.115,231.693 186.430,231.693 187.200 M49.287 191.500 C 48.330 192.435,48.314 192.481,49.181 191.806 C 50.888 190.476,50.969 190.400,50.686 190.400 C 50.536 190.400,49.906 190.895,49.287 191.500 M134.161 196.400 C 134.161 199.810,134.222 201.205,134.297 199.500 C 134.372 197.795,134.372 195.005,134.297 193.300 C 134.222 191.595,134.161 192.990,134.161 196.400 M54.326 191.912 C 54.916 192.524,55.476 192.974,55.568 192.911 C 55.799 192.755,53.935 190.800,53.556 190.800 C 53.388 190.800,53.735 191.301,54.326 191.912 M106.120 194.800 C 106.120 196.010,106.195 196.505,106.287 195.900 C 106.378 195.295,106.378 194.305,106.287 193.700 C 106.195 193.095,106.120 193.590,106.120 194.800 M46.893 194.300 C 45.857 195.796,45.521 196.400,45.723 196.400 C 45.817 196.400,46.370 195.680,46.953 194.800 C 48.136 193.012,48.084 192.579,46.893 194.300 M352.654 194.343 C 351.652 195.389,351.571 195.704,351.702 198.043 L 351.846 200.600 351.923 197.936 C 351.994 195.495,352.103 195.184,353.231 194.236 C 353.908 193.666,354.301 193.200,354.106 193.200 C 353.910 193.200,353.257 193.715,352.654 194.343 M55.800 195.802 C 55.800 196.969,55.932 197.716,56.094 197.462 C 56.480 196.855,56.485 194.099,56.100 193.863 C 55.935 193.762,55.800 194.635,55.800 195.802 M316.128 196.800 C 316.128 198.230,316.201 198.815,316.289 198.100 C 316.378 197.385,316.378 196.215,316.289 195.500 C 316.201 194.785,316.128 195.370,316.128 196.800 M146.964 202.200 C 146.963 205.940,147.023 207.524,147.097 205.720 C 147.171 203.915,147.172 200.855,147.098 198.920 C 147.025 196.984,146.964 198.460,146.964 202.200 M263.787 199.300 L 261.400 201.800 263.900 199.413 C 265.275 198.099,266.400 196.974,266.400 196.913 C 266.400 196.617,266.005 196.978,263.787 199.300 M106.554 207.600 C 106.554 210.350,106.618 211.475,106.696 210.100 C 106.774 208.725,106.774 206.475,106.696 205.100 C 106.618 203.725,106.554 204.850,106.554 207.600 M352.493 204.000 C 352.493 204.770,352.575 205.085,352.676 204.700 C 352.776 204.315,352.776 203.685,352.676 203.300 C 352.575 202.915,352.493 203.230,352.493 204.000 M134.520 208.800 C 134.520 210.010,134.595 210.505,134.687 209.900 C 134.778 209.295,134.778 208.305,134.687 207.700 C 134.595 207.095,134.520 207.590,134.520 208.800 M353.293 208.400 C 353.293 209.170,353.375 209.485,353.476 209.100 C 353.576 208.715,353.576 208.085,353.476 207.700 C 353.375 207.315,353.293 207.630,353.293 208.400 M297.600 208.925 C 297.600 208.994,298.185 209.579,298.900 210.225 L 300.200 211.400 299.025 210.100 C 297.930 208.888,297.600 208.616,297.600 208.925 M238.901 211.000 C 238.905 211.880,238.987 212.193,239.083 211.695 C 239.179 211.198,239.175 210.478,239.075 210.095 C 238.975 209.713,238.896 210.120,238.901 211.000 M354.093 212.800 C 354.093 213.570,354.175 213.885,354.276 213.500 C 354.376 213.115,354.376 212.485,354.276 212.100 C 354.175 211.715,354.093 212.030,354.093 212.800 M301.314 216.200 C 301.317 217.300,301.395 217.703,301.487 217.095 C 301.579 216.486,301.577 215.586,301.482 215.095 C 301.387 214.603,301.311 215.100,301.314 216.200 M315.720 216.400 C 315.720 217.610,315.795 218.105,315.887 217.500 C 315.978 216.895,315.978 215.905,315.887 215.300 C 315.795 214.695,315.720 215.190,315.720 216.400 M144.399 216.100 C 143.810 216.904,143.713 217.184,144.145 216.833 C 144.801 216.300,145.793 214.800,145.489 214.800 C 145.413 214.800,144.922 215.385,144.399 216.100 M106.940 218.800 C 106.940 220.670,107.009 221.435,107.093 220.500 C 107.177 219.565,107.177 218.035,107.093 217.100 C 107.009 216.165,106.940 216.930,106.940 218.800 M90.528 218.400 C 90.528 219.830,90.601 220.415,90.689 219.700 C 90.778 218.985,90.778 217.815,90.689 217.100 C 90.601 216.385,90.528 216.970,90.528 218.400 M315.328 223.600 C 315.328 225.030,315.401 225.615,315.489 224.900 C 315.578 224.185,315.578 223.015,315.489 222.300 C 315.401 221.585,315.328 222.170,315.328 223.600 M368.093 223.600 C 368.093 224.370,368.175 224.685,368.276 224.300 C 368.376 223.915,368.376 223.285,368.276 222.900 C 368.175 222.515,368.093 222.830,368.093 223.600 M90.934 226.800 C 90.934 228.450,91.005 229.125,91.091 228.300 C 91.178 227.475,91.178 226.125,91.091 225.300 C 91.005 224.475,90.934 225.150,90.934 226.800 M323.111 230.293 C 324.051 230.378,325.491 230.377,326.311 230.291 C 327.130 230.205,326.360 230.136,324.600 230.137 C 322.840 230.139,322.170 230.209,323.111 230.293 M330.705 230.683 C 331.202 230.779,331.922 230.775,332.305 230.675 C 332.687 230.575,332.280 230.496,331.400 230.501 C 330.520 230.505,330.207 230.587,330.705 230.683 M33.334 233.600 C 33.334 235.250,33.405 235.925,33.491 235.100 C 33.578 234.275,33.578 232.925,33.491 232.100 C 33.405 231.275,33.334 231.950,33.334 233.600 M336.512 231.095 C 337.564 231.177,339.184 231.176,340.112 231.092 C 341.040 231.008,340.180 230.941,338.200 230.942 C 336.220 230.943,335.460 231.012,336.512 231.095 M345.100 231.482 C 345.595 231.578,346.405 231.578,346.900 231.482 C 347.395 231.387,346.990 231.309,346.000 231.309 C 345.010 231.309,344.605 231.387,345.100 231.482 M351.705 231.887 C 352.314 231.979,353.214 231.977,353.705 231.882 C 354.197 231.787,353.700 231.711,352.600 231.714 C 351.500 231.717,351.097 231.795,351.705 231.887 M106.914 233.800 C 106.917 234.900,106.995 235.303,107.087 234.695 C 107.179 234.086,107.177 233.186,107.082 232.695 C 106.987 232.203,106.911 232.700,106.914 233.800 M91.701 236.200 C 91.705 237.080,91.787 237.393,91.883 236.895 C 91.979 236.398,91.975 235.678,91.875 235.295 C 91.775 234.913,91.696 235.320,91.701 236.200 M54.917 235.897 C 56.411 235.974,58.751 235.974,60.117 235.896 C 61.482 235.818,60.260 235.755,57.400 235.755 C 54.540 235.756,53.422 235.820,54.917 235.897 M67.300 236.287 C 67.905 236.378,68.895 236.378,69.500 236.287 C 70.105 236.195,69.610 236.120,68.400 236.120 C 67.190 236.120,66.695 236.195,67.300 236.287 M74.512 236.695 C 75.564 236.777,77.184 236.776,78.112 236.692 C 79.040 236.608,78.180 236.541,76.200 236.542 C 74.220 236.543,73.460 236.612,74.512 236.695 M106.501 238.600 C 106.505 239.480,106.587 239.793,106.683 239.295 C 106.779 238.798,106.775 238.078,106.675 237.695 C 106.575 237.313,106.496 237.720,106.501 238.600 M311.400 239.850 C 310.681 240.462,310.534 240.705,311.033 240.457 C 311.766 240.093,313.141 238.776,312.749 238.814 C 312.667 238.822,312.060 239.288,311.400 239.850 M364.378 240.700 L 363.000 242.200 364.500 240.822 C 365.896 239.538,366.184 239.200,365.878 239.200 C 365.812 239.200,365.137 239.875,364.378 240.700 M336.305 243.483 C 336.802 243.579,337.522 243.575,337.905 243.475 C 338.287 243.375,337.880 243.296,337.000 243.301 C 336.120 243.305,335.807 243.387,336.305 243.483 M343.300 244.287 C 343.905 244.378,344.895 244.378,345.500 244.287 C 346.105 244.195,345.610 244.120,344.400 244.120 C 343.190 244.120,342.695 244.195,343.300 244.287 M356.100 244.276 C 356.485 244.376,357.115 244.376,357.500 244.276 C 357.885 244.175,357.570 244.093,356.800 244.093 C 356.030 244.093,355.715 244.175,356.100 244.276 M350.707 244.690 C 351.426 244.779,352.506 244.777,353.107 244.686 C 353.708 244.595,353.120 244.522,351.800 244.524 C 350.480 244.526,349.988 244.601,350.707 244.690 M102.600 245.627 C 101.940 246.050,101.605 246.397,101.856 246.398 C 102.106 246.399,102.736 246.046,103.256 245.613 C 104.445 244.623,104.159 244.629,102.600 245.627 M75.105 245.883 C 75.602 245.979,76.322 245.975,76.705 245.875 C 77.087 245.775,76.680 245.696,75.800 245.701 C 74.920 245.705,74.607 245.787,75.105 245.883 M68.700 246.682 C 69.195 246.778,70.005 246.778,70.500 246.682 C 70.995 246.587,70.590 246.509,69.600 246.509 C 68.610 246.509,68.205 246.587,68.700 246.682 M51.900 247.498 C 53.935 247.571,57.265 247.571,59.300 247.498 C 61.335 247.425,59.670 247.366,55.600 247.366 C 51.530 247.366,49.865 247.425,51.900 247.498 " stroke="none" fill="#346ab4" fill-rule="evenodd"></path></g></svg>